<svg id="Layer_1" data-name="Layer 1" xmlns="http://www.w3.org/2000/svg" viewBox="0 0 946.43 357.37"><defs><style>.cls-1{fill:#ee5253;}.cls-2{fill:#82ccdd;}</style></defs><title>logo</title><path class="cls-1" d="M130.53,96.72h14.76v90.4H9.23V13.93h121.3V96.72ZM51.2,47.6V69H79.56V47.6H51.2ZM94.78,148.84V115.17H51.2v33.67H94.78Z" transform="translate(-9.23 -13.93)"/><path class="cls-1" d="M164,14.16H314.1v173H164v-173Zm50.5,49.12v75.87h49.12V63.28H214.47Z" transform="translate(-9.23 -13.93)"/><path class="cls-1" d="M424.1,14.16h50.5v173H332.77v-173h50.5v125H424.1v-125Z" transform="translate(-9.23 -13.93)"/><path class="cls-1" d="M636.26,14.16v173H586.91l-43.12-74.49v74.49h-50.5v-173h52.81L586.91,81.5V14.16h49.35Z" transform="translate(-9.23 -13.93)"/><path class="cls-1" d="M793.31,68.12h-42v119h-54.2v-119h-42v-54H793.31v54Z" transform="translate(-9.23 -13.93)"/><path class="cls-1" d="M949.2,14.16v173h-137V146.3h90.17V125.78H812.21V14.16H859v66h43.36v-66H949.2Z" transform="translate(-9.23 -13.93)"/><path class="cls-2" d="M57.42,310V371.3h-48v-173h48v61.34h42.2V198.34h48v173h-48V310H57.42Z" transform="translate(-9.23 -13.93)"/><path class="cls-2" d="M257.6,198.34h50.5v173H166.27v-173h50.5v125H257.6v-125Z" transform="translate(-9.23 -13.93)"/><path class="cls-2" d="M469.76,198.34v173H420.41l-43.12-74.49V371.3h-50.5v-173h52.81l40.82,67.34V198.34h49.35Z" transform="translate(-9.23 -13.93)"/><path class="cls-2" d="M626.81,252.3h-42v119h-54.2v-119h-42v-54H626.81v54Z" transform="translate(-9.23 -13.93)"/><path class="cls-2" d="M645.71,197.88H793.77v47h-95V272.6H747v32.52H697.6v19.14h96.17v47H645.71V197.88Z" transform="translate(-9.23 -13.93)"/><path class="cls-2" d="M922,321.95l33.67,49.35H892l-28.83-38.51V371.3h-50.5v-173H950.81V321.95H922Zm-20.29-44.28V247.46H863.18v30.21h38.51Z" transform="translate(-9.23 -13.93)"/></svg>